<svg viewBox="0 0 500 500" xmlns="http://www.w3.org/2000/svg"><path d="M8.259 67.764c0-30.324 24.652-54.976 54.976-54.976h329.854c30.323 0 54.976 24.652 54.976 54.976v274.879c0 30.322-24.653 54.975-54.976 54.975H63.235c-30.324 0-54.976-24.653-54.976-54.975V67.764zM49.49 301.41v27.488c0 7.559 6.185 13.745 13.745 13.745h27.488c7.558 0 13.743-6.186 13.743-13.745V301.41c0-7.558-6.185-13.744-13.743-13.744H63.235c-7.56 0-13.745 6.186-13.745 13.744zm316.111-13.744c-7.559 0-13.744 6.186-13.744 13.744v27.488c0 7.559 6.185 13.745 13.744 13.745h27.488c7.56 0 13.743-6.186 13.743-13.745V301.41c0-7.558-6.183-13.744-13.743-13.744h-27.488zM49.49 191.459v27.487c0 7.56 6.185 13.744 13.745 13.744h27.488c7.558 0 13.743-6.184 13.743-13.744v-27.487c0-7.558-6.185-13.744-13.743-13.744H63.235c-7.56 0-13.745 6.186-13.745 13.744zm316.111-13.744c-7.559 0-13.744 6.186-13.744 13.744v27.487c0 7.56 6.185 13.744 13.744 13.744h27.488c7.56 0 13.743-6.184 13.743-13.744v-27.487c0-7.558-6.183-13.744-13.743-13.744h-27.488zM49.49 81.508v27.488c0 7.559 6.185 13.743 13.745 13.743h27.488c7.558 0 13.743-6.184 13.743-13.743V81.508c0-7.559-6.185-13.744-13.743-13.744H63.235c-7.56 0-13.745 6.185-13.745 13.744zm316.111-13.744c-7.559 0-13.744 6.185-13.744 13.744v27.488c0 7.559 6.185 13.743 13.744 13.743h27.488c7.56 0 13.743-6.184 13.743-13.743V81.508c0-7.559-6.183-13.744-13.743-13.744h-27.488zM145.699 95.252v54.976c0 15.204 12.282 27.487 27.487 27.487h109.951c15.205 0 27.488-12.283 27.488-27.487V95.252c0-15.204-12.283-27.488-27.488-27.488H173.186c-15.205 0-27.487 12.284-27.487 27.488zm27.487 137.438c-15.205 0-27.487 12.284-27.487 27.489v54.975c0 15.205 12.282 27.489 27.487 27.489h109.951c15.205 0 27.488-12.284 27.488-27.489v-54.975c0-15.205-12.283-27.489-27.488-27.489H173.186z" style="fill:#aeb3be"/><path d="M267.638 174.179c-10.752-6.611-24.264-6.828-35.236-.654a34.936 34.936 0 0 0-17.798 30.44v255.722a34.937 34.937 0 0 0 17.798 30.44c10.972 6.174 24.484 5.885 35.236-.654l209.228-127.862c10.388-6.319 16.707-17.581 16.707-29.785 0-12.205-6.319-23.393-16.707-29.785L267.638 174.179z"/></svg>